<?xml version="1.0" encoding="UTF-8"?>
<!DOCTYPE svg PUBLIC "-//W3C//DTD SVG 1.1//EN" "http://www.w3.org/Graphics/SVG/1.1/DTD/svg11.dtd">
<svg xmlns="http://www.w3.org/2000/svg" version="1.1" width="762px" height="836px" style="shape-rendering:geometricPrecision; text-rendering:geometricPrecision; image-rendering:optimizeQuality; fill-rule:evenodd; clip-rule:evenodd" xmlns:xlink="http://www.w3.org/1999/xlink">
<g><path style="opacity:1" fill="#d9d9d9" d="M -0.5,-0.5 C 200.167,-0.5 400.833,-0.5 601.5,-0.5C 574.627,51.5812 546.461,102.914 517,153.5C 475.925,225.327 433.592,296.327 390,366.5C 371.098,400.778 360.931,437.445 359.5,476.5C 359.359,499.58 364.859,521.247 376,541.5C 389.768,564.953 406.934,585.786 427.5,604C 458.385,630.78 491.718,654.114 527.5,674C 572.305,696.235 616.638,719.235 660.5,743C 680.256,753.211 700.256,762.878 720.5,772C 733.978,777.742 747.645,782.909 761.5,787.5C 761.5,802.167 761.5,816.833 761.5,831.5C 760.512,832.795 759.512,834.128 758.5,835.5C 505.5,835.5 252.5,835.5 -0.5,835.5C -0.5,556.833 -0.5,278.167 -0.5,-0.5 Z"/></g>
<g><path style="opacity:1" fill="#f6f6f6" d="M 601.5,-0.5 C 603.5,-0.5 605.5,-0.5 607.5,-0.5C 588.121,37.2578 567.954,74.5911 547,111.5C 507.586,179.997 467.919,248.33 428,316.5C 411.488,340.844 396.488,366.177 383,392.5C 367.782,428.132 362.449,465.132 367,503.5C 373.778,529.061 385.778,551.728 403,571.5C 434.062,605.245 469.229,633.745 508.5,657C 523.339,665.587 538.339,673.92 553.5,682C 602.625,706.729 651.625,731.729 700.5,757C 720.4,766.619 740.733,775.119 761.5,782.5C 761.5,784.167 761.5,785.833 761.5,787.5C 747.645,782.909 733.978,777.742 720.5,772C 700.256,762.878 680.256,753.211 660.5,743C 616.638,719.235 572.305,696.235 527.5,674C 491.718,654.114 458.385,630.78 427.5,604C 406.934,585.786 389.768,564.953 376,541.5C 364.859,521.247 359.359,499.58 359.5,476.5C 360.931,437.445 371.098,400.778 390,366.5C 433.592,296.327 475.925,225.327 517,153.5C 546.461,102.914 574.627,51.5812 601.5,-0.5 Z"/></g>
<g><path style="opacity:1" fill="#d9d9d9" d="M 607.5,-0.5 C 637.5,-0.5 667.5,-0.5 697.5,-0.5C 682.22,32.0641 665.386,63.7308 647,94.5C 612.063,151.765 576.73,208.765 541,265.5C 521.333,298.833 501.667,332.167 482,365.5C 465.461,395.404 458.128,427.404 460,461.5C 463.452,479.398 470.452,495.731 481,510.5C 495.872,529.705 513.038,546.539 532.5,561C 545.653,570.746 559.319,579.746 573.5,588C 621.076,614.623 669.41,639.956 718.5,664C 732.739,670.466 747.073,676.632 761.5,682.5C 761.5,715.833 761.5,749.167 761.5,782.5C 740.733,775.119 720.4,766.619 700.5,757C 651.625,731.729 602.625,706.729 553.5,682C 538.339,673.92 523.339,665.587 508.5,657C 469.229,633.745 434.062,605.245 403,571.5C 385.778,551.728 373.778,529.061 367,503.5C 362.449,465.132 367.782,428.132 383,392.5C 396.488,366.177 411.488,340.844 428,316.5C 467.919,248.33 507.586,179.997 547,111.5C 567.954,74.5911 588.121,37.2578 607.5,-0.5 Z"/></g>
<g><path style="opacity:1" fill="#f6f6f6" d="M 697.5,-0.5 C 699.5,-0.5 701.5,-0.5 703.5,-0.5C 688.22,32.0641 671.386,63.7308 653,94.5C 618.835,150.835 584.168,206.835 549,262.5C 527.333,299.167 505.667,335.833 484,372.5C 469.731,400.11 463.398,429.443 465,460.5C 468.693,479.883 476.693,497.216 489,512.5C 512.619,539.467 539.785,561.967 570.5,580C 618.885,607.529 668.218,633.529 718.5,658C 732.627,664.732 746.96,670.899 761.5,676.5C 761.5,678.5 761.5,680.5 761.5,682.5C 747.073,676.632 732.739,670.466 718.5,664C 669.41,639.956 621.076,614.623 573.5,588C 559.319,579.746 545.653,570.746 532.5,561C 513.038,546.539 495.872,529.705 481,510.5C 470.452,495.731 463.452,479.398 460,461.5C 458.128,427.404 465.461,395.404 482,365.5C 501.667,332.167 521.333,298.833 541,265.5C 576.73,208.765 612.063,151.765 647,94.5C 665.386,63.7308 682.22,32.0641 697.5,-0.5 Z"/></g>
<g><path style="opacity:1" fill="#d9d9d9" d="M 703.5,-0.5 C 722.833,-0.5 742.167,-0.5 761.5,-0.5C 761.5,15.1667 761.5,30.8333 761.5,46.5C 709,157.519 650.833,265.186 587,369.5C 573.66,392.534 568.66,417.201 572,443.5C 575.111,456.723 581.111,468.39 590,478.5C 609.696,499.746 632.196,517.246 657.5,531C 679.467,541.315 700.801,552.648 721.5,565C 734.5,572.002 747.833,578.168 761.5,583.5C 761.5,614.5 761.5,645.5 761.5,676.5C 746.96,670.899 732.627,664.732 718.5,658C 668.218,633.529 618.885,607.529 570.5,580C 539.785,561.967 512.619,539.467 489,512.5C 476.693,497.216 468.693,479.883 465,460.5C 463.398,429.443 469.731,400.11 484,372.5C 505.667,335.833 527.333,299.167 549,262.5C 584.168,206.835 618.835,150.835 653,94.5C 671.386,63.7308 688.22,32.0641 703.5,-0.5 Z"/></g>
<g><path style="opacity:1" fill="#f6f6f6" d="M 761.5,46.5 C 761.5,50.5 761.5,54.5 761.5,58.5C 710.186,165.806 653.686,270.139 592,371.5C 580.173,392.308 574.839,414.641 576,438.5C 579.246,453.326 585.912,466.326 596,477.5C 614.216,496.394 634.716,512.228 657.5,525C 680.768,535.966 703.435,547.966 725.5,561C 737.163,567.333 749.163,572.833 761.5,577.5C 761.5,579.5 761.5,581.5 761.5,583.5C 747.833,578.168 734.5,572.002 721.5,565C 700.801,552.648 679.467,541.315 657.5,531C 632.196,517.246 609.696,499.746 590,478.5C 581.111,468.39 575.111,456.723 572,443.5C 568.66,417.201 573.66,392.534 587,369.5C 650.833,265.186 709,157.519 761.5,46.5 Z"/></g>
<g><path style="opacity:1" fill="#d9d9d9" d="M 761.5,58.5 C 761.5,231.5 761.5,404.5 761.5,577.5C 749.163,572.833 737.163,567.333 725.5,561C 703.435,547.966 680.768,535.966 657.5,525C 634.716,512.228 614.216,496.394 596,477.5C 585.912,466.326 579.246,453.326 576,438.5C 574.839,414.641 580.173,392.308 592,371.5C 653.686,270.139 710.186,165.806 761.5,58.5 Z"/></g>
<g><path style="opacity:1" fill="#fafafa" d="M 761.5,831.5 C 761.5,832.833 761.5,834.167 761.5,835.5C 760.5,835.5 759.5,835.5 758.5,835.5C 759.512,834.128 760.512,832.795 761.5,831.5 Z"/></g>
</svg>
