<?xml version="1.0" encoding="UTF-8"?>
<!DOCTYPE svg PUBLIC "-//W3C//DTD SVG 1.1//EN" "http://www.w3.org/Graphics/SVG/1.1/DTD/svg11.dtd">
<svg xmlns="http://www.w3.org/2000/svg" version="1.1" width="506px" height="505px" style="shape-rendering:geometricPrecision; text-rendering:geometricPrecision; image-rendering:optimizeQuality; fill-rule:evenodd; clip-rule:evenodd" xmlns:xlink="http://www.w3.org/1999/xlink">
<g><path style="opacity:1" fill="#a6a6a6" d="M -0.5,-0.5 C 139.833,-0.5 280.167,-0.5 420.5,-0.5C 409.535,21.4298 398.035,43.0964 386,64.5C 353.066,121.76 319.732,178.76 286,235.5C 275.718,257.858 272.384,281.191 276,305.5C 282.593,326.762 294.093,344.929 310.5,360C 334.076,381.13 360.076,398.797 388.5,413C 417.104,427.636 445.771,442.303 474.5,457C 484.821,461.604 495.155,466.104 505.5,470.5C 505.5,481.833 505.5,493.167 505.5,504.5C 336.833,504.5 168.167,504.5 -0.5,504.5C -0.5,336.167 -0.5,167.833 -0.5,-0.5 Z"/></g>
<g><path style="opacity:1" fill="#e7e7e7" d="M 420.5,-0.5 C 421.833,-0.5 423.167,-0.5 424.5,-0.5C 406.187,34.127 387.353,68.4603 368,102.5C 341.667,147.167 315.333,191.833 289,236.5C 280.497,256.332 276.83,276.999 278,298.5C 280.673,314.199 287.007,328.199 297,340.5C 322.694,369.261 352.861,392.095 387.5,409C 421.291,425.729 454.958,442.729 488.5,460C 494.073,462.468 499.74,464.635 505.5,466.5C 505.5,467.833 505.5,469.167 505.5,470.5C 495.155,466.104 484.821,461.604 474.5,457C 445.771,442.303 417.104,427.636 388.5,413C 360.076,398.797 334.076,381.13 310.5,360C 294.093,344.929 282.593,326.762 276,305.5C 272.384,281.191 275.718,257.858 286,235.5C 319.732,178.76 353.066,121.76 386,64.5C 398.035,43.0964 409.535,21.4298 420.5,-0.5 Z"/></g>
<g><path style="opacity:1" fill="#a6a6a6" d="M 424.5,-0.5 C 442.167,-0.5 459.833,-0.5 477.5,-0.5C 468.536,18.0939 459.036,36.4272 449,54.5C 413.913,110.333 379.58,166.667 346,223.5C 334.068,245.074 331.068,267.74 337,291.5C 346.157,310.33 359.324,325.83 376.5,338C 411.878,360.363 448.545,380.696 486.5,399C 492.671,402 499.004,404.5 505.5,406.5C 505.5,426.5 505.5,446.5 505.5,466.5C 499.74,464.635 494.073,462.468 488.5,460C 454.958,442.729 421.291,425.729 387.5,409C 352.861,392.095 322.694,369.261 297,340.5C 287.007,328.199 280.673,314.199 278,298.5C 276.83,276.999 280.497,256.332 289,236.5C 315.333,191.833 341.667,147.167 368,102.5C 387.353,68.4603 406.187,34.127 424.5,-0.5 Z"/></g>
<g><path style="opacity:1" fill="#e7e7e7" d="M 477.5,-0.5 C 478.5,-0.5 479.5,-0.5 480.5,-0.5C 469.988,22.858 458.154,45.5246 445,67.5C 411.873,119.973 379.539,172.973 348,226.5C 338.35,244.772 335.016,264.105 338,284.5C 342.375,296.921 349.042,307.921 358,317.5C 368.253,327.09 379.086,335.924 390.5,344C 427.694,365.931 466.027,385.764 505.5,403.5C 505.5,404.5 505.5,405.5 505.5,406.5C 499.004,404.5 492.671,402 486.5,399C 448.545,380.696 411.878,360.363 376.5,338C 359.324,325.83 346.157,310.33 337,291.5C 331.068,267.74 334.068,245.074 346,223.5C 379.58,166.667 413.913,110.333 449,54.5C 459.036,36.4272 468.536,18.0939 477.5,-0.5 Z"/></g>
<g><path style="opacity:1" fill="#a6a6a6" d="M 480.5,-0.5 C 488.833,-0.5 497.167,-0.5 505.5,-0.5C 505.5,15.8333 505.5,32.1667 505.5,48.5C 475.836,109.503 443.336,168.836 408,226.5C 400.877,239.658 398.21,253.658 400,268.5C 404.66,281.838 412.494,293.004 423.5,302C 432.956,309.451 442.956,316.118 453.5,322C 470.974,330.661 488.307,339.494 505.5,348.5C 505.5,366.833 505.5,385.167 505.5,403.5C 466.027,385.764 427.694,365.931 390.5,344C 379.086,335.924 368.253,327.09 358,317.5C 349.042,307.921 342.375,296.921 338,284.5C 335.016,264.105 338.35,244.772 348,226.5C 379.539,172.973 411.873,119.973 445,67.5C 458.154,45.5246 469.988,22.858 480.5,-0.5 Z"/></g>
<g><path style="opacity:1" fill="#e7e7e7" d="M 505.5,48.5 C 505.5,51.1667 505.5,53.8333 505.5,56.5C 474.125,118.258 440.958,178.924 406,238.5C 400.679,252.541 401.345,266.207 408,279.5C 419.399,295.564 433.899,308.064 451.5,317C 469.429,326.464 487.429,335.63 505.5,344.5C 505.5,345.833 505.5,347.167 505.5,348.5C 488.307,339.494 470.974,330.661 453.5,322C 442.956,316.118 432.956,309.451 423.5,302C 412.494,293.004 404.66,281.838 400,268.5C 398.21,253.658 400.877,239.658 408,226.5C 443.336,168.836 475.836,109.503 505.5,48.5 Z"/></g>
<g><path style="opacity:1" fill="#a6a6a6" d="M 505.5,56.5 C 505.5,152.5 505.5,248.5 505.5,344.5C 487.429,335.63 469.429,326.464 451.5,317C 433.899,308.064 419.399,295.564 408,279.5C 401.345,266.207 400.679,252.541 406,238.5C 440.958,178.924 474.125,118.258 505.5,56.5 Z"/></g>
</svg>
